# xmcd
#
# Track frame offsets: 
#        150
#        16814
#        57234
#        75962
#        95570
#        120002
#        136959
#        160082
#        178543
#        194031
#        209436
#        235476
#        256994
#        276040
#        294220
#        309645
#        341109
#
# Disc length: 4797 seconds
#
# Revision: 0
# Processed by: cddbd v1.5.2PL0 Copyright (c) Steve Scherf et al.
# Submitted via: ExactAudioCopy v0.95a5
#
DISCID=e912bb11
DTITLE=Various Artist - Blues-Rock Now!!!  Box2  CD1
DYEAR=2007
DGENRE=Rock
TTITLE0=All Night Long - BUDDAHHEADS
TTITLE1=Endless Parade - GOV'T MULE
TTITLE2=Crossroads - MIKE ONESKO BLUES BAND
TTITLE3=Lookin' Glass - SHANE HENRY
TTITLE4=The Storm - GEORGE ROSS-WATT and The BUSINESS
TTITLE5=When The Haze Is Gone - ROB ORLEMANS and Half Past Midnight
TTITLE6=Crawlin' Kingsnake - LESLIE WEST
TTITLE7=Never Make Your Too Soon - JOE BONAMASSA
TTITLE8=The Way You Shake - INDIGENOUS
TTITLE9=Middle Age Teenage - PEER GUNT
TTITLE10=Voodoo In A Motel Room - JESUS VOLT
TTITLE11=Rain - GRADY CAIN
TTITLE12=Blue - GILES
TTITLE13=Get Up, Get Over It - GWYN ASHTON
TTITLE14=Back On The Road - NATIONAL DUST
TTITLE15=All I know - JULIAN SAS
TTITLE16=Be Mine - KENNY WAYNE SHEPHERD
EXTD=
EXTT0=
EXTT1=
EXTT2=
EXTT3=
EXTT4=
EXTT5=
EXTT6=
EXTT7=
EXTT8=
EXTT9=
EXTT10=
EXTT11=
EXTT12=
EXTT13=
EXTT14=
EXTT15=
EXTT16=
PLAYORDER=
